<svg xmlns="http://www.w3.org/2000/svg" xmlns:xlink="http://www.w3.org/1999/xlink" width="712" zoomAndPan="magnify" viewBox="0 0 534 130.499996" height="174" preserveAspectRatio="xMidYMid meet" version="1.0"><defs><g/><clipPath id="643416f7a3"><path d="M 20.035156 29 L 61 29 L 61 72 L 20.035156 72 Z M 20.035156 29 " clip-rule="nonzero"/></clipPath><clipPath id="313ff67109"><path d="M 20.035156 29 L 55 29 L 55 68 L 20.035156 68 Z M 20.035156 29 " clip-rule="nonzero"/></clipPath><clipPath id="c291e44948"><path d="M 59.585938 50.507812 C 56.390625 62.328125 45.144531 71.914062 34.441406 71.914062 C 23.738281 71.914062 17.695312 62.328125 20.890625 50.507812 C 24.085938 38.6875 35.332031 29.097656 46.019531 29.097656 C 56.707031 29.097656 62.78125 38.6875 59.585938 50.507812 Z M 59.585938 50.507812 " clip-rule="nonzero"/></clipPath><clipPath id="06f6858445"><rect x="0" width="405" y="0" height="97"/></clipPath><clipPath id="1ff75a00b2"><rect x="0" width="98" y="0" height="29"/></clipPath></defs><path fill="#046758" d="M 87.679688 47.78125 C 87.679688 47.921875 87.558594 48.21875 87.296875 48.707031 C 86.964844 49.320312 86.632812 49.914062 86.300781 50.507812 C 86.230469 50.839844 85.601562 52.722656 84.46875 56.128906 C 83.160156 59.917969 82.164062 63.078125 81.484375 65.644531 C 80.433594 69.46875 79.910156 72.386719 79.910156 74.394531 C 79.910156 74.636719 80 74.863281 80.191406 75.09375 C 80.382812 75.320312 80.609375 75.425781 80.90625 75.425781 C 81.9375 75.425781 83.019531 74.847656 84.171875 73.679688 C 85.324219 72.523438 86.003906 71.933594 86.25 71.933594 C 86.527344 71.933594 86.789062 72.089844 87.050781 72.386719 C 87.121094 72.492188 87.226562 72.648438 87.367188 72.839844 C 87.296875 73.242188 86.738281 74.550781 85.726562 76.734375 C 85.21875 77.816406 84.921875 78.410156 84.835938 78.480469 C 83.996094 78.917969 83.175781 79.371094 82.425781 79.808594 C 80.015625 81.273438 78.671875 82.078125 78.390625 82.214844 C 75.980469 82.214844 74.359375 81.851562 73.503906 81.097656 C 72.648438 80.347656 72.210938 79.003906 72.210938 77.066406 C 72.210938 75.914062 72.523438 74.097656 73.171875 71.652344 C 73.816406 69.191406 74.132812 67.425781 74.132812 66.328125 C 74.132812 65.960938 73.992188 65.769531 73.710938 65.769531 C 72.402344 66.308594 70.238281 66.816406 67.234375 67.253906 C 64.214844 67.6875 60.84375 67.914062 57.105469 67.914062 L 56.6875 68.074219 C 56.285156 68.683594 55.535156 70.308594 54.46875 72.960938 C 53.40625 75.597656 52.863281 77.203125 52.863281 77.746094 C 52.863281 77.921875 52.914062 78.183594 53.003906 78.53125 C 53.089844 78.882812 53.144531 79.160156 53.144531 79.316406 C 53.144531 79.703125 51.902344 80.453125 49.421875 81.585938 C 46.945312 82.722656 45.425781 83.300781 44.867188 83.300781 C 44.640625 83.300781 44.414062 83.210938 44.203125 83.019531 C 43.976562 82.828125 43.820312 82.617188 43.730469 82.375 C 44.183594 80.800781 44.882812 79.019531 45.808594 76.996094 C 48.289062 71.53125 49.632812 68.527344 49.84375 67.933594 C 49.773438 67.828125 49.667969 67.757812 49.582031 67.722656 C 49.230469 67.550781 48.777344 67.460938 48.238281 67.460938 L 42.597656 67.460938 C 42.597656 67.460938 42.769531 67.707031 42.964844 67.96875 C 43.15625 68.246094 43.261719 68.457031 43.261719 68.632812 C 43.261719 69.066406 42.753906 69.59375 41.742188 70.167969 C 40.726562 70.746094 39.941406 71.042969 39.382812 71.042969 C 39.105469 71.042969 38.214844 70.675781 36.695312 69.957031 C 35.664062 69.488281 34.792969 69.171875 34.058594 69.03125 C 33.324219 68.894531 32.589844 68.753906 31.859375 68.632812 C 30.96875 68.371094 30.511719 67.933594 30.511719 67.355469 C 30.511719 65.996094 32.015625 64.753906 35 63.621094 C 37.460938 62.695312 40.570312 62.242188 44.324219 62.242188 C 46.367188 62.242188 47.957031 62.277344 49.109375 62.34375 C 50.246094 62.414062 51.1875 62.484375 51.921875 62.554688 C 52.914062 60.476562 53.703125 58.851562 54.296875 57.699219 C 56.058594 54.15625 57.4375 51.570312 58.433594 49.929688 C 58.609375 49.667969 59.691406 49.144531 61.664062 48.375 C 63.636719 47.609375 64.875 47.222656 65.382812 47.222656 C 65.644531 47.222656 65.871094 47.328125 66.082031 47.539062 C 66.292969 47.746094 66.394531 47.976562 66.429688 48.253906 C 66.429688 48.570312 66.328125 48.867188 66.117188 49.144531 C 65.90625 49.441406 65.46875 49.929688 64.773438 50.648438 C 64.371094 51.152344 63.324219 53.179688 61.648438 56.6875 C 59.96875 60.199219 59.113281 62.222656 59.0625 62.730469 C 59.394531 62.9375 60.003906 63.097656 60.878906 63.21875 C 61.769531 63.339844 62.957031 63.394531 64.476562 63.394531 C 67.933594 63.394531 70.605469 63.21875 72.488281 62.886719 C 73.695312 62.675781 74.691406 62.292969 75.476562 61.71875 C 77.34375 57.527344 79.230469 53.316406 81.117188 49.074219 C 82.09375 48.796875 83.054688 48.273438 84.015625 47.46875 C 84.976562 46.664062 85.707031 46.265625 86.214844 46.265625 C 86.753906 46.265625 87.140625 46.402344 87.402344 46.664062 C 87.664062 46.945312 87.785156 47.3125 87.785156 47.78125 Z M 87.679688 47.78125 " fill-opacity="1" fill-rule="nonzero"/><g clip-path="url(#643416f7a3)"><path fill="#046758" d="M 59.585938 50.507812 C 56.390625 62.328125 45.144531 71.914062 34.441406 71.914062 C 23.738281 71.914062 17.695312 62.328125 20.890625 50.507812 C 24.085938 38.6875 35.332031 29.097656 46.019531 29.097656 C 56.707031 29.097656 62.78125 38.6875 59.585938 50.507812 Z M 59.585938 50.507812 " fill-opacity="1" fill-rule="nonzero"/></g><g clip-path="url(#313ff67109)"><g clip-path="url(#c291e44948)"><path fill="#ffffff" d="M 54.367188 33.585938 C 54.367188 34.425781 53.964844 34.84375 53.144531 34.84375 C 52.671875 34.84375 51.398438 34.285156 49.285156 33.183594 C 47.171875 32.085938 45.773438 31.527344 45.058594 31.527344 C 44.675781 31.527344 44.394531 31.632812 44.203125 31.859375 C 44.011719 32.066406 43.921875 32.347656 43.921875 32.679688 C 43.921875 34.269531 45.269531 36.589844 47.957031 39.628906 C 50.644531 42.667969 51.992188 44.691406 51.992188 45.722656 C 51.992188 46.753906 50.960938 47.554688 48.898438 48.0625 C 47.378906 48.359375 45.863281 48.621094 44.34375 48.882812 C 42.472656 48.113281 40.5 47.746094 38.441406 47.746094 C 35.890625 47.746094 33.640625 48.21875 31.683594 49.164062 C 29.203125 50.367188 27.980469 52.027344 27.980469 54.15625 C 27.980469 56.984375 30.113281 59.289062 34.371094 61.054688 C 37.882812 62.503906 41.425781 63.234375 45.039062 63.234375 C 46.507812 63.234375 47.871094 63.042969 49.125 62.660156 C 50.382812 62.277344 51.640625 61.890625 52.898438 61.488281 C 53.246094 61.488281 53.527344 61.613281 53.71875 61.875 C 53.910156 62.117188 54 62.414062 54 62.746094 C 54 63.828125 51.378906 64.914062 46.125 66.011719 C 41.722656 66.921875 38.441406 67.375 36.257812 67.375 C 31.859375 67.375 28.15625 66.519531 25.136719 64.824219 C 21.574219 62.746094 19.773438 59.882812 19.773438 56.183594 C 19.773438 53.386719 21.328125 50.976562 24.417969 48.953125 C 26.777344 47.398438 29.882812 46.140625 33.742188 45.199219 C 36.710938 44.464844 39 44.117188 40.625 44.117188 C 39.347656 42.527344 38.25 40.992188 37.324219 39.507812 C 36.292969 37.847656 35.769531 36.46875 35.769531 35.386719 C 35.769531 33.324219 37.359375 31.457031 40.535156 29.78125 C 43.382812 28.296875 46.195312 27.546875 48.96875 27.546875 C 50.472656 27.546875 51.449219 27.667969 51.902344 27.929688 C 52.355469 28.191406 52.757812 28.941406 53.089844 30.21875 C 53.179688 30.515625 53.40625 31.054688 53.789062 31.875 C 54.171875 32.695312 54.367188 33.253906 54.367188 33.585938 Z M 54.367188 33.585938 " fill-opacity="1" fill-rule="nonzero"/></g></g><g transform="matrix(1, 0, 0, 1, 106, 16)"><g clip-path="url(#06f6858445)"><g fill="#046758" fill-opacity="1"><g transform="translate(0.930299, 80.880047)"><g><path d="M 36.875 7.09375 C 36.769531 6.78125 36.5625 5.910156 36.25 4.484375 C 36.25 -6.597656 36.25 -13.003906 36.25 -14.734375 L 36.09375 -15.359375 L 32.625 -14.578125 C 25.632812 -13.265625 19.722656 -11.953125 14.890625 -10.640625 C 13.472656 -10.210938 12.394531 -9.894531 11.65625 -9.6875 L 11.03125 -9.6875 L 10.5625 -10 C 9.351562 -12.050781 8.644531 -13.835938 8.4375 -15.359375 C 16.726562 -17.410156 25.65625 -19.25 35.21875 -20.875 L 35.859375 -20.875 L 36.015625 -21.671875 C 36.015625 -22.722656 35.90625 -23.585938 35.6875 -24.265625 C 35.6875 -24.367188 35.398438 -24.394531 34.828125 -24.34375 C 34.253906 -24.289062 33.363281 -24.082031 32.15625 -23.71875 L 29.78125 -23.09375 L 29.390625 -23.40625 C 29.179688 -23.613281 28.921875 -23.847656 28.609375 -24.109375 C 27.453125 -25.898438 26.632812 -27.347656 26.15625 -28.453125 C 24.476562 -32.753906 23.035156 -36.742188 21.828125 -40.421875 C 21.617188 -41.054688 21.566406 -41.632812 21.671875 -42.15625 C 22.515625 -42.675781 24.878906 -43.488281 28.765625 -44.59375 C 29.972656 -45.019531 31.492188 -45.492188 33.328125 -46.015625 C 33.535156 -52.367188 33.640625 -56.726562 33.640625 -59.09375 C 33.640625 -60.726562 33.640625 -61.859375 33.640625 -62.484375 C 34.898438 -62.585938 36.347656 -62.484375 37.984375 -62.171875 C 38.921875 -61.960938 39.507812 -61.644531 39.75 -61.21875 C 39.988281 -60.800781 40.160156 -59.9375 40.265625 -58.625 L 40.265625 -56.734375 C 41.734375 -56.941406 43.625 -57.148438 45.9375 -57.359375 C 48.144531 -57.460938 49.785156 -57.4375 50.859375 -57.28125 C 51.941406 -57.125 52.5625 -56.863281 52.71875 -56.5 C 53.238281 -55.238281 53.445312 -53.953125 53.34375 -52.640625 C 53.34375 -52.429688 53.195312 -52.296875 52.90625 -52.234375 C 52.625 -52.179688 51.851562 -52.101562 50.59375 -52 C 45.96875 -51.582031 42.734375 -51.113281 40.890625 -50.59375 C 40.054688 -49.90625 39.554688 -48.878906 39.390625 -47.515625 L 39.390625 -46.890625 L 40.578125 -46.890625 C 44.890625 -46.722656 48.644531 -46.222656 51.84375 -45.390625 C 53.582031 -44.648438 55.003906 -43.890625 56.109375 -43.109375 L 56.890625 -42.3125 L 56.890625 -41.6875 C 56.472656 -39.632812 55.5 -37.164062 53.96875 -34.28125 C 53.34375 -33.175781 52.582031 -31.804688 51.6875 -30.171875 C 50.53125 -27.921875 49.664062 -26.375 49.09375 -25.53125 C 48.5625 -25.53125 46.644531 -25.425781 43.34375 -25.21875 L 43.015625 -24.90625 C 42.648438 -24.269531 42.519531 -23.453125 42.625 -22.453125 L 42.703125 -21.671875 C 49.273438 -21.566406 53.632812 -21.460938 55.78125 -21.359375 C 57.78125 -21.253906 60.039062 -21.09375 62.5625 -20.875 C 64.820312 -20.769531 66.265625 -20.675781 66.890625 -20.59375 C 67.523438 -20.519531 68 -20.378906 68.3125 -20.171875 C 69.101562 -18.015625 69.265625 -15.914062 68.796875 -13.875 C 68.679688 -13.757812 68.492188 -13.726562 68.234375 -13.78125 C 67.972656 -13.84375 67.03125 -14.054688 65.40625 -14.421875 C 62.9375 -15.046875 60.46875 -15.46875 58 -15.6875 C 52.0625 -15.894531 46.9375 -15.894531 42.625 -15.6875 C 42.3125 -9.21875 42 -2.046875 41.6875 5.828125 L 41.53125 6.625 L 40.734375 6.9375 C 39.523438 7.25 38.34375 7.351562 37.1875 7.25 C 37.082031 7.144531 36.976562 7.09375 36.875 7.09375 Z M 40.578125 -30.34375 C 42.203125 -30.394531 43.300781 -30.472656 43.875 -30.578125 C 44.457031 -30.679688 44.859375 -30.835938 45.078125 -31.046875 C 45.753906 -32.097656 46.566406 -33.4375 47.515625 -35.0625 C 48.253906 -36.90625 48.726562 -38.507812 48.9375 -39.875 L 48.9375 -40.421875 L 48.453125 -40.734375 C 48.035156 -41.046875 47.445312 -41.253906 46.6875 -41.359375 C 45.925781 -41.472656 44.570312 -41.53125 42.625 -41.53125 L 39.390625 -41.375 C 34.773438 -40.269531 31.625 -39.453125 29.9375 -38.921875 L 29.546875 -38.609375 L 29.546875 -37.1875 C 29.703125 -34.457031 30.148438 -32.015625 30.890625 -29.859375 L 31.203125 -29.234375 C 32.253906 -29.335938 33.488281 -29.492188 34.90625 -29.703125 C 36.632812 -29.910156 38.523438 -30.125 40.578125 -30.34375 Z M 30.578125 -36.015625 C 30.578125 -36.328125 31.191406 -36.707031 32.421875 -37.15625 C 33.660156 -37.601562 35.039062 -37.984375 36.5625 -38.296875 L 38.453125 -38.609375 L 40.734375 -38.609375 C 42.148438 -38.609375 43.039062 -38.582031 43.40625 -38.53125 C 43.78125 -38.476562 44.070312 -38.296875 44.28125 -37.984375 C 44.59375 -37.453125 44.671875 -36.804688 44.515625 -36.046875 C 44.359375 -35.285156 44.125 -34.75 43.8125 -34.4375 C 42.601562 -34.007812 40.289062 -33.457031 36.875 -32.78125 C 35.144531 -32.46875 34.015625 -32.257812 33.484375 -32.15625 C 33.378906 -32.15625 33.144531 -32.257812 32.78125 -32.46875 C 32.25 -32.675781 31.722656 -33.1875 31.203125 -34 C 30.679688 -34.8125 30.472656 -35.484375 30.578125 -36.015625 Z M 30.578125 -36.015625 "/></g></g></g><g fill="#046758" fill-opacity="1"><g transform="translate(67.898638, 80.880047)"><g><path d="M 29.234375 1.109375 C 27.660156 -2.566406 26.660156 -5.640625 26.234375 -8.109375 C 26.660156 -8.222656 27.503906 -8.4375 28.765625 -8.75 C 33.597656 -9.90625 38.242188 -10.613281 42.703125 -10.875 L 47.828125 -10.71875 C 50.191406 -10.238281 51.925781 -9.632812 53.03125 -8.90625 L 53.34375 -8.59375 L 53.03125 -7.796875 C 51.925781 -4.648438 50.953125 -2.257812 50.109375 -0.625 C 49.585938 0.425781 49.128906 1.195312 48.734375 1.6875 C 48.335938 2.1875 47.984375 2.4375 47.671875 2.4375 C 46.828125 2.4375 43.859375 2.488281 38.765625 2.59375 C 34.929688 3.019531 32.671875 3.285156 31.984375 3.390625 C 31.671875 3.390625 31.359375 3.335938 31.046875 3.234375 C 30.410156 2.648438 29.804688 1.941406 29.234375 1.109375 Z M 41.6875 -2.125 C 43.414062 -2.226562 44.546875 -2.382812 45.078125 -2.59375 C 45.492188 -3.019531 45.78125 -3.835938 45.9375 -5.046875 L 45.9375 -6.296875 L 45.703125 -6.46875 C 42.078125 -6.675781 38.003906 -6.304688 33.484375 -5.359375 C 33.171875 -5.148438 32.972656 -4.9375 32.890625 -4.71875 C 32.816406 -4.507812 32.78125 -4.015625 32.78125 -3.234375 L 32.78125 -2.125 L 33.171875 -1.65625 L 33.484375 -1.34375 C 35.328125 -1.445312 36.664062 -1.550781 37.5 -1.65625 C 38.550781 -1.863281 39.945312 -2.019531 41.6875 -2.125 Z M 25.84375 -13.546875 L 25.53125 -14.421875 C 26.632812 -14.628906 27.609375 -14.835938 28.453125 -15.046875 C 32.441406 -15.785156 37.296875 -16.414062 43.015625 -16.9375 C 47.328125 -17.039062 50.113281 -16.988281 51.375 -16.78125 C 51.6875 -16.050781 51.6875 -15.132812 51.375 -14.03125 L 51.0625 -13.390625 L 47.671875 -13.390625 C 42.523438 -13.285156 37.742188 -12.757812 33.328125 -11.8125 C 30.859375 -11.289062 28.96875 -10.898438 27.65625 -10.640625 C 27.550781 -10.640625 27.394531 -10.71875 27.1875 -10.875 C 26.757812 -11.5 26.3125 -12.390625 25.84375 -13.546875 Z M 5.515625 -15.515625 C 5.617188 -15.734375 5.945312 -16.023438 6.5 -16.390625 C 7.050781 -16.753906 7.90625 -17.28125 9.0625 -17.96875 C 12.632812 -20.007812 15.601562 -21.875 17.96875 -23.5625 C 21.644531 -26.707031 24.398438 -29.253906 26.234375 -31.203125 L 26.234375 -31.515625 C 24.398438 -31.097656 22.722656 -30.734375 21.203125 -30.421875 C 19.566406 -30.046875 18.015625 -29.648438 16.546875 -29.234375 C 14.710938 -28.710938 13.546875 -28.367188 13.046875 -28.203125 C 12.546875 -28.046875 12.242188 -28.019531 12.140625 -28.125 C 11.398438 -29.601562 10.769531 -31.15625 10.25 -32.78125 L 10.40625 -33.09375 C 16.5 -34.71875 19.9375 -35.691406 20.71875 -36.015625 C 20.71875 -36.691406 20.613281 -38.160156 20.40625 -40.421875 C 19.613281 -46.203125 18.851562 -50.171875 18.125 -52.328125 C 17.707031 -53.054688 17.679688 -53.566406 18.046875 -53.859375 C 18.410156 -54.148438 19.40625 -54.609375 21.03125 -55.234375 C 22.1875 -55.648438 23.367188 -56.125 24.578125 -56.65625 C 26.734375 -57.550781 28.46875 -58.15625 29.78125 -58.46875 C 30.207031 -58.46875 30.578125 -58.363281 30.890625 -58.15625 L 31.203125 -57.671875 C 31.410156 -55.835938 31.515625 -54.710938 31.515625 -54.296875 L 31.359375 -53.8125 L 29.78125 -53.421875 C 27.519531 -52.472656 25.785156 -51.582031 24.578125 -50.75 C 24.265625 -50.269531 24.265625 -49.769531 24.578125 -49.25 C 26.109375 -49.457031 27.789062 -49.71875 29.625 -50.03125 L 30.421875 -50.03125 L 30.734375 -49.5625 C 31.046875 -48.9375 31.253906 -48.253906 31.359375 -47.515625 C 31.359375 -47.203125 31.226562 -46.976562 30.96875 -46.84375 C 30.707031 -46.707031 30.234375 -46.535156 29.546875 -46.328125 C 27.867188 -45.910156 26.675781 -45.460938 25.96875 -44.984375 C 25.257812 -44.515625 24.90625 -44.046875 24.90625 -43.578125 L 24.90625 -43.109375 L 25.375 -43.109375 C 25.945312 -43.316406 26.914062 -43.550781 28.28125 -43.8125 C 29.601562 -44.125 30.472656 -44.226562 30.890625 -44.125 C 31.203125 -43.757812 31.304688 -43.101562 31.203125 -42.15625 L 31.203125 -41.375 L 30.734375 -41.046875 C 30.203125 -40.835938 29.492188 -40.578125 28.609375 -40.265625 C 27.554688 -40.003906 26.753906 -39.738281 26.203125 -39.46875 C 25.648438 -39.207031 25.320312 -38.972656 25.21875 -38.765625 C 25.113281 -38.453125 25.0625 -38.140625 25.0625 -37.828125 L 25.21875 -37.03125 L 26 -37.03125 C 28.519531 -37.238281 30.675781 -37.609375 32.46875 -38.140625 C 32.675781 -38.765625 32.910156 -39.945312 33.171875 -41.6875 C 33.273438 -42.738281 33.40625 -43.457031 33.5625 -43.84375 C 33.71875 -44.238281 33.957031 -44.539062 34.28125 -44.75 L 34.90625 -45.078125 L 35.6875 -44.921875 C 36.789062 -44.804688 37.523438 -44.550781 37.890625 -44.15625 C 38.265625 -43.769531 38.242188 -43.207031 37.828125 -42.46875 C 37.296875 -41.101562 36.925781 -39.921875 36.71875 -38.921875 L 36.71875 -38.453125 L 38.140625 -38.453125 C 38.765625 -38.554688 39.210938 -38.660156 39.484375 -38.765625 C 39.585938 -38.867188 39.640625 -39.023438 39.640625 -39.234375 C 39.847656 -40.972656 40.160156 -42.8125 40.578125 -44.75 L 40.578125 -46.015625 L 40.265625 -46.171875 C 39.578125 -46.273438 38.601562 -46.222656 37.34375 -46.015625 C 36.613281 -45.804688 35.800781 -45.703125 34.90625 -45.703125 L 34.59375 -46.328125 C 34.382812 -46.703125 34.28125 -47.203125 34.28125 -47.828125 C 34.28125 -48.460938 34.332031 -49.695312 34.4375 -51.53125 C 34.539062 -54.101562 34.4375 -56.675781 34.125 -59.25 C 34.019531 -60.25 33.96875 -60.957031 33.96875 -61.375 L 34.125 -61.546875 C 36.59375 -61.546875 38.140625 -61.488281 38.765625 -61.375 L 39.390625 -61.0625 C 39.453125 -59.957031 39.484375 -59.039062 39.484375 -58.3125 L 39.484375 -57.203125 C 40.109375 -57.304688 41.101562 -57.410156 42.46875 -57.515625 C 43.675781 -57.734375 44.492188 -57.84375 44.921875 -57.84375 C 45.546875 -56.738281 45.882812 -55.445312 45.9375 -53.96875 C 45.882812 -53.65625 45.726562 -53.484375 45.46875 -53.453125 C 45.207031 -53.429688 44.445312 -53.316406 43.1875 -53.109375 C 41.863281 -52.898438 40.546875 -52.640625 39.234375 -52.328125 L 39.078125 -51.53125 C 38.867188 -50.800781 38.816406 -50.300781 38.921875 -50.03125 C 39.398438 -50.03125 41.082031 -50.03125 43.96875 -50.03125 L 44.4375 -49.71875 C 45.070312 -49.300781 45.492188 -48.515625 45.703125 -47.359375 L 45.703125 -46.171875 C 45.179688 -44.128906 44.707031 -42.472656 44.28125 -41.203125 L 43.65625 -39.390625 L 43.8125 -39.234375 C 44.332031 -39.128906 45.195312 -39.078125 46.40625 -39.078125 C 47.769531 -39.078125 48.804688 -39.128906 49.515625 -39.234375 C 50.234375 -39.335938 50.75 -39.550781 51.0625 -39.875 L 51.53125 -40.265625 C 51.425781 -41.316406 51.320312 -42 51.21875 -42.3125 L 51.0625 -42.625 L 47.515625 -42.46875 L 47.203125 -42.9375 C 46.671875 -43.832031 46.351562 -44.753906 46.25 -45.703125 C 46.351562 -45.804688 46.851562 -45.910156 47.75 -46.015625 C 48.644531 -46.117188 49.644531 -46.171875 50.75 -46.171875 L 51.84375 -46.171875 C 52.269531 -46.859375 52.507812 -47.460938 52.5625 -47.984375 L 52.5625 -48.296875 L 47.828125 -48.140625 C 47.410156 -49.878906 47.203125 -50.90625 47.203125 -51.21875 C 47.203125 -51.53125 47.515625 -51.765625 48.140625 -51.921875 C 48.773438 -52.078125 50.171875 -52.265625 52.328125 -52.484375 L 53.34375 -52.484375 L 53.34375 -52.953125 C 53.445312 -53.160156 53.445312 -53.5 53.34375 -53.96875 L 53.1875 -54.609375 L 52.875 -54.609375 C 52.507812 -54.503906 51.535156 -54.289062 49.953125 -53.96875 L 49.640625 -54.140625 C 49.378906 -54.347656 49.09375 -54.765625 48.78125 -55.390625 C 48.25 -56.597656 47.929688 -57.414062 47.828125 -57.84375 C 48.828125 -58.15625 50.328125 -58.414062 52.328125 -58.625 C 54.265625 -58.519531 56.257812 -58.257812 58.3125 -57.84375 C 59.09375 -57.519531 59.5625 -57.210938 59.71875 -56.921875 C 59.882812 -56.640625 59.804688 -56.179688 59.484375 -55.546875 C 58.597656 -51.921875 57.363281 -46.828125 55.78125 -40.265625 L 55.78125 -39.71875 C 56.832031 -39.613281 58.226562 -39.503906 59.96875 -39.390625 C 61.539062 -39.285156 62.601562 -39.179688 63.15625 -39.078125 C 63.707031 -38.972656 64.140625 -38.816406 64.453125 -38.609375 L 64.921875 -38.296875 L 65.25 -36.171875 L 64.609375 -33.96875 C 60.617188 -34.070312 57.785156 -34.175781 56.109375 -34.28125 C 54.578125 -34.488281 53.257812 -34.59375 52.15625 -34.59375 C 51.425781 -34.488281 50.796875 -34.382812 50.265625 -34.28125 C 49.742188 -34.175781 49.484375 -34.070312 49.484375 -33.96875 C 50.847656 -32.539062 52.34375 -31.171875 53.96875 -29.859375 C 56.96875 -27.597656 59.597656 -25.601562 61.859375 -23.875 C 64.117188 -22.71875 66.820312 -21.429688 69.96875 -20.015625 C 71.601562 -19.273438 72.734375 -18.75 73.359375 -18.4375 C 73.992188 -18.125 74.363281 -17.863281 74.46875 -17.65625 L 74.625 -17.328125 L 74.46875 -16.9375 C 73.9375 -16.3125 72.972656 -15.835938 71.578125 -15.515625 C 70.191406 -15.203125 68.1875 -15.046875 65.5625 -15.046875 L 62.40625 -15.046875 L 61.859375 -15.359375 C 59.390625 -17.828125 56.34375 -20.742188 52.71875 -24.109375 L 51.6875 -24.90625 L 47.046875 -24.90625 C 41.734375 -24.6875 36.554688 -24.03125 31.515625 -22.9375 C 28.523438 -22.195312 26.320312 -21.507812 24.90625 -20.875 C 24.164062 -20.613281 23.640625 -20.613281 23.328125 -20.875 L 23.015625 -21.03125 L 22.609375 -20.875 C 22.085938 -20.613281 21.300781 -20.0625 20.25 -19.21875 C 18.300781 -17.800781 16.304688 -16.460938 14.265625 -15.203125 C 12.421875 -14.421875 10.476562 -14.054688 8.4375 -14.109375 C 7.59375 -14.210938 6.867188 -14.421875 6.265625 -14.734375 C 5.660156 -15.046875 5.410156 -15.304688 5.515625 -15.515625 Z M 34.90625 -27.96875 C 35.800781 -28.175781 36.40625 -28.28125 36.71875 -28.28125 C 36.40625 -29.226562 35.90625 -30.410156 35.21875 -31.828125 C 34.800781 -32.460938 34.4375 -32.832031 34.125 -32.9375 L 33.640625 -32.9375 C 32.648438 -31.570312 31.734375 -30.441406 30.890625 -29.546875 C 30.253906 -28.703125 29.703125 -27.914062 29.234375 -27.1875 C 29.804688 -27.1875 30.566406 -27.289062 31.515625 -27.5 C 32.617188 -27.707031 33.75 -27.863281 34.90625 -27.96875 Z M 47.046875 -29.390625 C 46.515625 -30.078125 45.59375 -30.890625 44.28125 -31.828125 C 43.65625 -32.253906 42.789062 -32.832031 41.6875 -33.5625 C 40.425781 -33.5625 39.742188 -33.507812 39.640625 -33.40625 C 39.742188 -33.195312 40.003906 -32.832031 40.421875 -32.3125 C 41.160156 -31.15625 41.582031 -30.179688 41.6875 -29.390625 L 41.6875 -28.765625 C 44.257812 -28.867188 45.832031 -28.972656 46.40625 -29.078125 C 46.726562 -29.179688 46.941406 -29.285156 47.046875 -29.390625 Z M 25.6875 -19.21875 L 25.53125 -19.859375 L 25.84375 -20.015625 C 28.46875 -20.691406 32.039062 -21.347656 36.5625 -21.984375 C 41.289062 -22.503906 45.097656 -22.820312 47.984375 -22.9375 L 50.265625 -22.9375 L 50.75 -22.609375 L 51.0625 -22.140625 L 51.0625 -21.203125 C 50.957031 -20.722656 50.851562 -20.273438 50.75 -19.859375 L 50.4375 -19.390625 L 47.671875 -19.390625 C 44.097656 -19.171875 40.816406 -18.851562 37.828125 -18.4375 C 32.785156 -17.539062 29.394531 -16.882812 27.65625 -16.46875 C 27.550781 -16.570312 27.394531 -16.726562 27.1875 -16.9375 C 26.5 -17.726562 26 -18.488281 25.6875 -19.21875 Z M 25.6875 -19.21875 "/></g></g></g><g fill="#046758" fill-opacity="1"><g transform="translate(134.866978, 80.880047)"><g><path d="M 28.453125 -2.765625 C 27.816406 -9.847656 27.289062 -16.097656 26.875 -21.515625 C 26.769531 -22.242188 26.71875 -23.476562 26.71875 -25.21875 L 27.03125 -25.53125 C 28.863281 -25.738281 31.066406 -26 33.640625 -26.3125 C 36.640625 -26.84375 40.1875 -27.109375 44.28125 -27.109375 L 49.25 -27.109375 C 51.082031 -26.679688 52.34375 -26.363281 53.03125 -26.15625 L 53.96875 -25.84375 L 54.140625 -25.375 C 54.242188 -24.632812 54.1875 -23.554688 53.96875 -22.140625 C 53.757812 -20.828125 53.445312 -16.3125 53.03125 -8.59375 C 52.925781 -4.488281 52.804688 -1.898438 52.671875 -0.828125 C 52.546875 0.242188 52.21875 0.941406 51.6875 1.265625 L 51.375 1.578125 L 47.828125 1.578125 C 42.203125 1.679688 37.082031 2.019531 32.46875 2.59375 L 30.265625 3.078125 L 29.9375 2.765625 C 29.570312 2.492188 29.285156 1.960938 29.078125 1.171875 C 28.867188 0.390625 28.660156 -0.921875 28.453125 -2.765625 Z M 42.625 -4.40625 L 45.703125 -4.5625 L 46.09375 -4.890625 C 46.40625 -5.097656 46.613281 -5.488281 46.71875 -6.0625 C 46.832031 -6.644531 46.890625 -7.488281 46.890625 -8.59375 C 46.773438 -9.53125 46.71875 -10.210938 46.71875 -10.640625 C 44.570312 -10.640625 41.816406 -10.585938 38.453125 -10.484375 C 37.191406 -10.378906 36.257812 -10.242188 35.65625 -10.078125 C 35.050781 -9.921875 34.644531 -9.738281 34.4375 -9.53125 L 34.125 -9.21875 C 34.019531 -6.644531 33.96875 -5.039062 33.96875 -4.40625 L 34.125 -4.015625 C 35.382812 -4.015625 36.507812 -4.066406 37.5 -4.171875 C 38.925781 -4.222656 40.632812 -4.300781 42.625 -4.40625 Z M 44.75 -16.9375 C 45.75 -16.9375 46.40625 -16.988281 46.71875 -17.09375 C 46.71875 -17.363281 46.71875 -18.675781 46.71875 -21.03125 L 46.25 -21.515625 L 45.859375 -21.828125 L 44.75 -21.984375 C 40.65625 -21.878906 37.113281 -21.457031 34.125 -20.71875 L 33.96875 -20.5625 C 33.851562 -18.144531 33.851562 -16.726562 33.96875 -16.3125 L 33.96875 -16 C 35.226562 -16 36.40625 -16.101562 37.5 -16.3125 C 39.96875 -16.625 42.382812 -16.832031 44.75 -16.9375 Z M 7.953125 -31.046875 L 7.953125 -31.671875 C 12.160156 -32.722656 17.703125 -33.957031 24.578125 -35.375 C 27.578125 -36.007812 29.328125 -36.40625 29.828125 -36.5625 C 30.328125 -36.71875 30.578125 -36.875 30.578125 -37.03125 C 30.472656 -37.457031 30.3125 -38.300781 30.09375 -39.5625 C 29.988281 -41.5 29.816406 -42.742188 29.578125 -43.296875 C 29.347656 -43.847656 28.914062 -44.070312 28.28125 -43.96875 C 26.238281 -43.601562 24.035156 -43.15625 21.671875 -42.625 L 20.5625 -42.46875 L 20.09375 -42.9375 C 19.40625 -43.9375 18.800781 -45.015625 18.28125 -46.171875 C 17.96875 -47.484375 17.863281 -48.351562 17.96875 -48.78125 C 21.539062 -49.507812 26.003906 -50.320312 31.359375 -51.21875 C 33.304688 -51.53125 35.039062 -51.84375 36.5625 -52.15625 L 36.875 -52.640625 L 37.03125 -53.109375 C 36.507812 -53.898438 35.90625 -54.816406 35.21875 -55.859375 C 34.59375 -56.960938 34.066406 -57.78125 33.640625 -58.3125 C 33.222656 -59.039062 33.171875 -59.90625 33.484375 -60.90625 C 33.691406 -61.75 33.851562 -62.429688 33.96875 -62.953125 L 34.125 -63.109375 C 37.113281 -62.378906 39.582031 -61.695312 41.53125 -61.0625 C 42.738281 -60.539062 43.421875 -59.789062 43.578125 -58.8125 C 43.734375 -57.84375 43.414062 -56.390625 42.625 -54.453125 C 42.3125 -53.660156 42.15625 -53.109375 42.15625 -52.796875 C 42.363281 -52.691406 42.707031 -52.640625 43.1875 -52.640625 C 46.070312 -52.535156 49.25 -52.269531 52.71875 -51.84375 C 54.976562 -51.53125 57.101562 -51.113281 59.09375 -50.59375 L 60.28125 -50.265625 C 60.175781 -47.535156 60.070312 -45.859375 59.96875 -45.234375 L 59.8125 -44.75 C 58.601562 -44.863281 57.523438 -44.972656 56.578125 -45.078125 C 55.367188 -45.285156 53.632812 -45.441406 51.375 -45.546875 C 49.75 -41.234375 48.832031 -38.660156 48.625 -37.828125 C 49.195312 -37.722656 50.320312 -37.5625 52 -37.34375 C 59.351562 -36.457031 64.894531 -35.382812 68.625 -34.125 C 69.101562 -33.851562 69.394531 -33.664062 69.5 -33.5625 C 69.601562 -33.457031 69.601562 -33.25 69.5 -32.9375 C 68.289062 -31.363281 67.003906 -29.867188 65.640625 -28.453125 L 65.40625 -28.28125 C 61.195312 -29.332031 57.910156 -30.097656 55.546875 -30.578125 C 54.921875 -30.578125 54.289062 -30.679688 53.65625 -30.890625 C 48.507812 -31.410156 43.125 -31.617188 37.5 -31.515625 C 30.09375 -30.617188 22.347656 -29.148438 14.265625 -27.109375 C 13.054688 -26.679688 12.1875 -26.441406 11.65625 -26.390625 C 11.132812 -26.335938 10.769531 -26.363281 10.5625 -26.46875 C 9.5625 -27.675781 8.691406 -29.203125 7.953125 -31.046875 Z M 43.1875 -42.3125 C 43.394531 -43.832031 43.5 -44.828125 43.5 -45.296875 C 43.5 -45.773438 43.394531 -46.066406 43.1875 -46.171875 C 41.65625 -46.066406 39.921875 -45.910156 37.984375 -45.703125 C 37.554688 -45.597656 37.289062 -45.492188 37.1875 -45.390625 C 37.1875 -42.921875 37.347656 -40.347656 37.671875 -37.671875 L 37.828125 -37.5 L 42 -37.671875 L 42.3125 -37.828125 C 42.414062 -38.035156 42.503906 -38.453125 42.578125 -39.078125 C 42.660156 -39.710938 42.863281 -40.789062 43.1875 -42.3125 Z M 43.1875 -42.3125 "/></g></g></g><g fill="#046758" fill-opacity="1"><g transform="translate(201.835317, 80.880047)"><g><path d="M 36.875 2.203125 C 36.351562 1.367188 35.75 0.347656 35.0625 -0.859375 L 35.0625 -3.078125 L 35.375 -3.546875 C 35.800781 -3.859375 36.023438 -4.523438 36.046875 -5.546875 C 36.078125 -6.578125 36.09375 -8.507812 36.09375 -11.34375 C 36.09375 -14.125 36.09375 -15.9375 36.09375 -16.78125 C 34.144531 -16.46875 30.960938 -15.734375 26.546875 -14.578125 C 21.035156 -12.953125 16.992188 -11.535156 14.421875 -10.328125 L 13.953125 -10 L 13.3125 -10.171875 C 11.789062 -11.265625 10.769531 -12.734375 10.25 -14.578125 L 10.25 -15.359375 L 11.65625 -16 C 18.125 -17.9375 25.453125 -19.671875 33.640625 -21.203125 C 34.691406 -21.410156 35.375 -21.566406 35.6875 -21.671875 C 35.800781 -21.773438 35.859375 -22.035156 35.859375 -22.453125 C 35.742188 -23.398438 35.796875 -24.109375 36.015625 -24.578125 C 36.171875 -25.003906 36.457031 -25.320312 36.875 -25.53125 L 37.5 -25.6875 L 38.609375 -25.53125 C 39.816406 -25.320312 40.679688 -25.03125 41.203125 -24.65625 C 41.734375 -24.289062 42.050781 -23.769531 42.15625 -23.09375 L 42.15625 -22.140625 L 45.390625 -22.140625 C 55.523438 -21.929688 62.585938 -21.617188 66.578125 -21.203125 C 67.210938 -20.617188 67.84375 -19.90625 68.46875 -19.0625 C 68.570312 -18.019531 68.570312 -17 68.46875 -16 C 68.46875 -15.789062 68.257812 -15.6875 67.84375 -15.6875 C 67.425781 -15.6875 66.613281 -15.789062 65.40625 -16 C 58.414062 -16.882812 51.898438 -17.382812 45.859375 -17.5 C 43.960938 -17.382812 42.726562 -17.328125 42.15625 -17.328125 C 42.257812 -13.972656 42.414062 -8.539062 42.625 -1.03125 C 42.625 0.8125 42.28125 2.242188 41.59375 3.265625 C 40.914062 4.296875 40.078125 4.8125 39.078125 4.8125 C 38.867188 4.707031 38.609375 4.441406 38.296875 4.015625 C 37.984375 3.492188 37.507812 2.890625 36.875 2.203125 Z M 19.546875 -4.171875 L 19.546875 -5.359375 L 19.78125 -6.140625 C 20.726562 -7.453125 21.910156 -8.738281 23.328125 -10 C 24.691406 -11 26.066406 -11.835938 27.453125 -12.515625 C 28.847656 -13.203125 29.675781 -13.441406 29.9375 -13.234375 L 30.265625 -13.078125 L 30.09375 -11.984375 C 29.726562 -9.515625 28.914062 -7.097656 27.65625 -4.734375 C 26.707031 -3.421875 25.472656 -2.34375 23.953125 -1.5 C 23.160156 -1.070312 22.660156 -0.78125 22.453125 -0.625 C 22.242188 -0.519531 21.769531 -0.414062 21.03125 -0.3125 L 20.71875 -0.78125 C 20.195312 -1.675781 19.804688 -2.804688 19.546875 -4.171875 Z M 48.78125 -11.34375 C 48.351562 -12.5 48.21875 -13.179688 48.375 -13.390625 C 48.539062 -13.597656 49.117188 -13.546875 50.109375 -13.234375 C 53.523438 -11.972656 56.3125 -10.6875 58.46875 -9.375 L 59.09375 -8.90625 L 58.9375 -6.9375 C 58.9375 -5.78125 58.882812 -4.875 58.78125 -4.21875 C 58.675781 -3.5625 58.46875 -3.128906 58.15625 -2.921875 C 57.832031 -2.703125 57.304688 -2.539062 56.578125 -2.4375 L 55.234375 -2.4375 L 53.8125 -3.859375 C 51.445312 -6.484375 49.769531 -8.976562 48.78125 -11.34375 Z M 14.265625 -26.953125 C 14.367188 -27.109375 14.523438 -27.289062 14.734375 -27.5 C 16.148438 -28.757812 17.644531 -30.519531 19.21875 -32.78125 C 19.800781 -33.78125 20.351562 -34.738281 20.875 -35.65625 C 21.40625 -36.570312 21.671875 -37.082031 21.671875 -37.1875 C 19.203125 -36.1875 17.148438 -35.269531 15.515625 -34.4375 C 14.890625 -35.695312 14.367188 -37.242188 13.953125 -39.078125 L 13.953125 -39.71875 C 14.472656 -40.03125 14.941406 -40.316406 15.359375 -40.578125 C 15.890625 -40.992188 16.285156 -41.414062 16.546875 -41.84375 C 19.222656 -47.351562 21.429688 -51.867188 23.171875 -55.390625 C 23.484375 -55.597656 23.847656 -55.625 24.265625 -55.46875 C 24.691406 -55.3125 25.269531 -54.867188 26 -54.140625 C 27.207031 -53.242188 27.8125 -52.476562 27.8125 -51.84375 C 27.8125 -51.21875 27.285156 -50.40625 26.234375 -49.40625 C 24.503906 -47.351562 22.984375 -45.410156 21.671875 -43.578125 C 21.242188 -42.941406 21.109375 -42.519531 21.265625 -42.3125 C 21.429688 -42.101562 21.878906 -42.050781 22.609375 -42.15625 C 23.296875 -42.257812 23.898438 -42.535156 24.421875 -42.984375 C 24.953125 -43.429688 25.476562 -44.128906 26 -45.078125 L 26.234375 -45.703125 L 26.71875 -45.703125 C 27.132812 -45.703125 27.679688 -45.320312 28.359375 -44.5625 C 29.046875 -43.800781 29.441406 -43.050781 29.546875 -42.3125 C 29.597656 -42 29.503906 -41.601562 29.265625 -41.125 C 29.035156 -40.65625 28.445312 -39.816406 27.5 -38.609375 C 25.976562 -36.878906 24.675781 -35.132812 23.59375 -33.375 C 22.519531 -31.613281 21.984375 -30.492188 21.984375 -30.015625 L 21.984375 -29.703125 L 22.9375 -29.703125 C 23.71875 -29.703125 24.238281 -29.847656 24.5 -30.140625 C 24.769531 -30.429688 25.0625 -31.101562 25.375 -32.15625 C 25.6875 -33.363281 25.929688 -34.046875 26.109375 -34.203125 C 26.296875 -34.359375 26.707031 -34.195312 27.34375 -33.71875 C 28.5 -32.675781 29.3125 -31.234375 29.78125 -29.390625 C 30.101562 -28.128906 30.101562 -26.894531 29.78125 -25.6875 C 29.519531 -24.945312 29.203125 -24.457031 28.828125 -24.21875 C 28.460938 -23.988281 27.96875 -23.953125 27.34375 -24.109375 L 26.71875 -24.421875 L 26.15625 -26 L 25.53125 -25.84375 C 24.476562 -25.632812 22.71875 -24.925781 20.25 -23.71875 C 18.726562 -22.976562 17.703125 -22.503906 17.171875 -22.296875 C 17.066406 -22.398438 16.910156 -22.503906 16.703125 -22.609375 C 15.703125 -24.140625 14.890625 -25.585938 14.265625 -26.953125 Z M 42.703125 -26.3125 L 41.53125 -27.34375 C 37.21875 -26.65625 34.640625 -26.207031 33.796875 -26 C 33.117188 -25.6875 32.59375 -25.609375 32.21875 -25.765625 C 31.851562 -25.921875 31.566406 -26.265625 31.359375 -26.796875 C 31.148438 -28.210938 30.941406 -31.597656 30.734375 -36.953125 C 30.628906 -39.679688 30.523438 -42.070312 30.421875 -44.125 C 30.316406 -45.800781 30.316406 -46.835938 30.421875 -47.234375 C 30.523438 -47.628906 30.785156 -47.878906 31.203125 -47.984375 C 31.941406 -48.410156 32.414062 -48.832031 32.625 -49.25 C 32.625 -49.664062 32.925781 -50.382812 33.53125 -51.40625 C 34.132812 -52.4375 35.09375 -53.765625 36.40625 -55.390625 C 37.351562 -56.597656 38.007812 -57.410156 38.375 -57.828125 C 38.738281 -58.253906 39.023438 -58.46875 39.234375 -58.46875 C 40.765625 -57.519531 42.132812 -56.285156 43.34375 -54.765625 C 43.445312 -54.554688 43.351562 -54.253906 43.0625 -53.859375 C 42.769531 -53.460938 42.257812 -52.84375 41.53125 -52 L 40.578125 -50.90625 L 42 -50.90625 C 44.625 -50.476562 46.566406 -50.03125 47.828125 -49.5625 C 48.035156 -48.71875 48.035156 -47.535156 47.828125 -46.015625 C 47.722656 -45.492188 47.671875 -45.125 47.671875 -44.90625 C 47.671875 -44.695312 47.722656 -44.644531 47.828125 -44.75 C 49.566406 -47.851562 51.300781 -51.554688 53.03125 -55.859375 C 53.445312 -56.753906 53.707031 -57.359375 53.8125 -57.671875 C 53.914062 -57.671875 54.179688 -57.617188 54.609375 -57.515625 C 56.128906 -56.628906 57.46875 -55.609375 58.625 -54.453125 C 58.726562 -54.128906 58.726562 -53.679688 58.625 -53.109375 L 58.46875 -52.328125 C 57.207031 -51.066406 56.367188 -50.25 55.953125 -49.875 C 54.523438 -47.882812 53.257812 -46.125 52.15625 -44.59375 C 51.84375 -44.28125 51.789062 -44.097656 52 -44.046875 C 52.21875 -43.992188 52.664062 -43.96875 53.34375 -43.96875 C 54.289062 -44.070312 54.894531 -44.226562 55.15625 -44.4375 C 55.414062 -44.644531 55.625 -45.066406 55.78125 -45.703125 C 56 -46.441406 56.421875 -47.304688 57.046875 -48.296875 L 57.359375 -48.453125 C 57.890625 -48.453125 58.5625 -48.125 59.375 -47.46875 C 60.1875 -46.8125 60.800781 -46.066406 61.21875 -45.234375 L 61.703125 -44.125 L 61.546875 -43.65625 C 61.222656 -43.175781 60.484375 -42.253906 59.328125 -40.890625 C 56.179688 -37.109375 54.082031 -34.40625 53.03125 -32.78125 C 53.132812 -32.675781 53.289062 -32.570312 53.5 -32.46875 C 53.8125 -32.46875 54.785156 -32.625 56.421875 -32.9375 L 56.578125 -35.53125 L 57.046875 -36.015625 C 57.359375 -36.328125 57.675781 -36.484375 58 -36.484375 L 58.625 -36.484375 L 59.171875 -35.859375 C 60.222656 -34.429688 61.066406 -33.035156 61.703125 -31.671875 C 61.703125 -30.566406 61.539062 -29.332031 61.21875 -27.96875 C 60.800781 -27.289062 60.332031 -26.847656 59.8125 -26.640625 C 59.332031 -26.640625 58.828125 -26.832031 58.296875 -27.21875 C 57.773438 -27.613281 57.304688 -28.179688 56.890625 -28.921875 L 56.734375 -29.078125 C 54.890625 -28.546875 53.15625 -28.019531 51.53125 -27.5 C 49.90625 -27.132812 48.722656 -26.847656 47.984375 -26.640625 L 47.359375 -26.3125 C 46.828125 -24.945312 46.507812 -24.132812 46.40625 -23.875 L 46.09375 -23.71875 L 45.078125 -24.421875 C 44.234375 -24.953125 43.441406 -25.582031 42.703125 -26.3125 Z M 42.3125 -31.828125 L 42.3125 -36.328125 C 42.101562 -40.847656 41.789062 -43.921875 41.375 -45.546875 C 41.257812 -45.753906 41.019531 -45.859375 40.65625 -45.859375 C 40.289062 -45.859375 39.710938 -45.753906 38.921875 -45.546875 C 37.554688 -44.910156 36.476562 -44.253906 35.6875 -43.578125 L 35.21875 -42.9375 C 35.21875 -42 35.269531 -41.421875 35.375 -41.203125 L 35.53125 -41.046875 L 37.03125 -41.203125 C 37.875 -41.421875 38.570312 -41.53125 39.125 -41.53125 C 39.675781 -41.53125 40.003906 -41.476562 40.109375 -41.375 C 40.523438 -40.738281 40.785156 -39.816406 40.890625 -38.609375 L 40.890625 -37.5 L 39.640625 -37.1875 C 38.535156 -36.925781 37.65625 -36.664062 37 -36.40625 C 36.34375 -36.144531 35.90625 -35.90625 35.6875 -35.6875 L 35.21875 -35.21875 C 35.320312 -34.21875 35.375 -33.351562 35.375 -32.625 L 35.375 -31.515625 C 38.425781 -31.617188 40.367188 -31.722656 41.203125 -31.828125 Z M 52.5625 -39.078125 C 52.5625 -39.398438 52.414062 -39.53125 52.125 -39.46875 C 51.832031 -39.414062 51.160156 -39.234375 50.109375 -38.921875 C 49.117188 -38.609375 48.359375 -38.398438 47.828125 -38.296875 L 47.515625 -38.296875 L 47.515625 -32.625 L 47.828125 -32.78125 C 48.140625 -33.09375 48.613281 -33.539062 49.25 -34.125 C 50.769531 -36.164062 51.875 -37.816406 52.5625 -39.078125 Z M 52.5625 -39.078125 "/></g></g></g><g fill="#046758" fill-opacity="1"><g transform="translate(268.803657, 80.880047)"><g><path d="M 34.4375 2.046875 L 34.28125 -10.875 L 34.28125 -22.765625 L 33.171875 -22.765625 C 29.910156 -22.035156 26.941406 -21.300781 24.265625 -20.5625 C 23.378906 -21.40625 22.195312 -22.585938 20.71875 -24.109375 C 20.09375 -25.367188 19.332031 -26.921875 18.4375 -28.765625 C 16.8125 -32.648438 15.421875 -35.929688 14.265625 -38.609375 C 13.628906 -39.660156 13.242188 -40.4375 13.109375 -40.9375 C 12.984375 -41.4375 13 -41.789062 13.15625 -42 C 16.570312 -42.945312 22.0625 -44.179688 29.625 -45.703125 C 31.414062 -46.117188 33.125 -46.515625 34.75 -46.890625 C 34.851562 -50.398438 34.90625 -53.65625 34.90625 -56.65625 C 34.90625 -59.175781 34.957031 -60.910156 35.0625 -61.859375 C 35.164062 -62.066406 35.441406 -62.144531 35.890625 -62.09375 C 36.335938 -62.039062 36.984375 -61.910156 37.828125 -61.703125 C 40.191406 -60.859375 41.867188 -60.148438 42.859375 -59.578125 L 43.1875 -59.25 L 43.015625 -58.46875 C 42.441406 -55.6875 42.050781 -52.457031 41.84375 -48.78125 L 41.6875 -47.203125 L 45.859375 -47.203125 C 52.421875 -46.828125 57.703125 -45.90625 61.703125 -44.4375 C 62.691406 -44.019531 63.445312 -43.664062 63.96875 -43.375 C 64.5 -43.082031 64.816406 -42.78125 64.921875 -42.46875 C 64.921875 -42.257812 64.710938 -41.691406 64.296875 -40.765625 C 63.878906 -39.847656 63.351562 -38.921875 62.71875 -37.984375 C 60.300781 -33.566406 57.960938 -29.257812 55.703125 -25.0625 C 55.390625 -24.53125 55.078125 -24.160156 54.765625 -23.953125 L 54.140625 -23.71875 L 50.75 -23.875 C 47.070312 -23.925781 44.101562 -23.875 41.84375 -23.71875 L 41.046875 -23.5625 C 40.941406 -18.09375 40.785156 -12.941406 40.578125 -8.109375 C 40.472656 -1.859375 40.210938 2.128906 39.796875 3.859375 C 39.523438 5.015625 39.128906 5.773438 38.609375 6.140625 C 38.191406 6.359375 37.820312 6.4375 37.5 6.375 C 37.1875 6.320312 36.820312 6.085938 36.40625 5.671875 C 35.613281 4.671875 34.957031 3.460938 34.4375 2.046875 Z M 34.75 -29.234375 C 34.75 -30.023438 34.695312 -33.625 34.59375 -40.03125 L 34.125 -40.03125 C 31.070312 -39.601562 27.785156 -38.757812 24.265625 -37.5 L 23.484375 -37.1875 L 23.640625 -36.328125 C 23.847656 -34.484375 24.21875 -32.429688 24.75 -30.171875 L 25.21875 -27.65625 C 25.632812 -27.445312 25.894531 -27.34375 26 -27.34375 C 26.363281 -27.445312 27.179688 -27.601562 28.453125 -27.8125 C 31.910156 -28.65625 34.007812 -29.128906 34.75 -29.234375 Z M 49.796875 -29.859375 L 50.90625 -31.359375 C 52.84375 -34.878906 54.128906 -37.71875 54.765625 -39.875 C 54.660156 -40.132812 54.394531 -40.34375 53.96875 -40.5 C 53.550781 -40.65625 52.84375 -40.835938 51.84375 -41.046875 L 45.9375 -41.203125 L 42.15625 -41.046875 L 41.84375 -40.890625 C 41.53125 -40.679688 41.34375 -40.25 41.28125 -39.59375 C 41.226562 -38.9375 41.203125 -37.21875 41.203125 -34.4375 L 41.203125 -29.859375 C 44.203125 -29.753906 46.253906 -29.703125 47.359375 -29.703125 C 48.085938 -29.703125 48.71875 -29.753906 49.25 -29.859375 Z M 49.796875 -29.859375 "/></g></g></g><g fill="#046758" fill-opacity="1"><g transform="translate(335.772014, 80.880047)"><g><path d="M 32.78125 -15.046875 C 28.945312 -19.148438 25.953125 -23.722656 23.796875 -28.765625 C 22.796875 -32.335938 22.085938 -35.25 21.671875 -37.5 C 21.773438 -37.5 22.035156 -37.5 22.453125 -37.5 C 23.453125 -37.394531 24.425781 -37.109375 25.375 -36.640625 L 25.84375 -36.171875 L 27.8125 -32.15625 C 29.96875 -27.84375 32.125 -24.398438 34.28125 -21.828125 C 36.21875 -20.203125 38.523438 -18.863281 41.203125 -17.8125 C 42.734375 -17.4375 44.679688 -17.144531 47.046875 -16.9375 C 48.566406 -16.726562 49.863281 -16.625 50.9375 -16.625 C 52.019531 -16.625 52.769531 -16.675781 53.1875 -16.78125 C 53.394531 -16.988281 53.550781 -17.09375 53.65625 -17.09375 C 52.238281 -20.144531 50.453125 -23.5625 48.296875 -27.34375 C 47.035156 -29.5 46.25 -30.890625 45.9375 -31.515625 C 46.039062 -31.617188 46.707031 -31.101562 47.9375 -29.96875 C 49.175781 -28.84375 50.71875 -27.257812 52.5625 -25.21875 C 55.445312 -22.113281 57.3125 -19.957031 58.15625 -18.75 C 60.195312 -15.601562 61.535156 -13.238281 62.171875 -11.65625 L 62.328125 -11.1875 L 62.015625 -11.03125 C 59.234375 -10.238281 55.476562 -9.476562 50.75 -8.75 C 48.59375 -8.539062 46.804688 -8.539062 45.390625 -8.75 C 40.867188 -10.0625 36.664062 -12.160156 32.78125 -15.046875 Z M 12.453125 -16.15625 L 10.71875 -17.65625 C 9.09375 -19.539062 7.753906 -21.351562 6.703125 -23.09375 L 6.140625 -23.953125 L 7.328125 -25.53125 C 10.640625 -29.207031 13.972656 -32.28125 17.328125 -34.75 L 17.8125 -35.0625 L 18.125 -34.90625 C 18.226562 -34.800781 18.28125 -34.617188 18.28125 -34.359375 C 18.28125 -34.097656 18.175781 -33.570312 17.96875 -32.78125 C 16.445312 -26.21875 15.265625 -20.726562 14.421875 -16.3125 C 14.316406 -16 13.867188 -15.894531 13.078125 -16 Z M 59.96875 -33.40625 C 58.757812 -34.40625 57.890625 -35.164062 57.359375 -35.6875 C 57.460938 -35.90625 57.625 -36.117188 57.84375 -36.328125 L 58.46875 -36.796875 L 58 -38.765625 C 57.675781 -39.765625 57.4375 -40.472656 57.28125 -40.890625 C 57.125 -41.316406 56.890625 -41.6875 56.578125 -42 C 56.367188 -42.207031 56.210938 -42.363281 56.109375 -42.46875 C 56.109375 -42.675781 56.722656 -42.726562 57.953125 -42.625 C 59.191406 -42.519531 60.175781 -42.363281 60.90625 -42.15625 C 62.539062 -41.3125 64.171875 -40.179688 65.796875 -38.765625 L 67.21875 -37.34375 L 67.21875 -36.796875 C 67.425781 -34.910156 67.53125 -32.941406 67.53125 -30.890625 L 67.53125 -29.390625 L 67.21875 -29.234375 C 66.894531 -29.335938 66.34375 -29.546875 65.5625 -29.859375 C 63.664062 -30.648438 61.800781 -31.832031 59.96875 -33.40625 Z M 32.859375 -40.578125 C 32.597656 -41.523438 32.253906 -43.179688 31.828125 -45.546875 L 32.15625 -46.015625 C 32.257812 -46.328125 32.703125 -46.378906 33.484375 -46.171875 C 34.535156 -46.066406 36.242188 -46.171875 38.609375 -46.484375 C 41.441406 -46.859375 43.488281 -46.96875 44.75 -46.8125 C 45.070312 -46.488281 45.019531 -45.800781 44.59375 -44.75 C 42.226562 -40.550781 40.023438 -37.269531 37.984375 -34.90625 C 37.773438 -35.007812 37.507812 -35.21875 37.1875 -35.53125 C 35.5625 -37.164062 34.117188 -38.847656 32.859375 -40.578125 Z M 32.859375 -40.578125 "/></g></g></g></g></g><g transform="matrix(1, 0, 0, 1, 7, 82)"><g clip-path="url(#1ff75a00b2)"><g fill="#046758" fill-opacity="1"><g transform="translate(1.064951, 22.208874)"><g><path d="M 20.28125 -16 C 20.601562 -16 20.894531 -15.867188 21.15625 -15.609375 C 21.414062 -15.347656 21.628906 -15.046875 21.796875 -14.703125 C 21.960938 -14.359375 22.046875 -14.0625 22.046875 -13.8125 C 22.046875 -13.65625 22.015625 -13.546875 21.953125 -13.484375 C 21.453125 -12.898438 20.9375 -12.1875 20.40625 -11.34375 C 19.875 -10.5 19.351562 -9.609375 18.84375 -8.671875 C 18.332031 -7.734375 17.847656 -6.789062 17.390625 -5.84375 C 16.929688 -4.90625 16.523438 -4.023438 16.171875 -3.203125 C 15.828125 -2.378906 15.550781 -1.671875 15.34375 -1.078125 C 15.144531 -0.492188 15.035156 -0.0820312 15.015625 0.15625 C 15.015625 0.320312 14.925781 0.40625 14.75 0.40625 C 14.5625 0.40625 14.328125 0.316406 14.046875 0.140625 C 13.773438 -0.0351562 13.53125 -0.28125 13.3125 -0.59375 C 13.101562 -0.90625 13 -1.253906 13 -1.640625 C 13 -2.078125 13.132812 -2.691406 13.40625 -3.484375 C 13.675781 -4.285156 14.035156 -5.175781 14.484375 -6.15625 C 14.941406 -7.144531 15.445312 -8.144531 16 -9.15625 C 16.550781 -10.175781 17.109375 -11.113281 17.671875 -11.96875 C 17.023438 -11.3125 16.304688 -10.546875 15.515625 -9.671875 C 14.734375 -8.804688 13.925781 -7.863281 13.09375 -6.84375 C 12.257812 -5.820312 11.453125 -4.753906 10.671875 -3.640625 C 9.890625 -2.535156 9.179688 -1.414062 8.546875 -0.28125 C 8.523438 -0.125 8.40625 -0.046875 8.1875 -0.046875 C 8 -0.046875 7.769531 -0.117188 7.5 -0.265625 C 7.238281 -0.421875 7.003906 -0.628906 6.796875 -0.890625 C 6.597656 -1.148438 6.5 -1.441406 6.5 -1.765625 C 6.5 -2.117188 6.566406 -2.609375 6.703125 -3.234375 C 6.835938 -3.867188 7.015625 -4.566406 7.234375 -5.328125 C 7.453125 -6.097656 7.691406 -6.875 7.953125 -7.65625 C 8.210938 -8.445312 8.460938 -9.191406 8.703125 -9.890625 C 8.953125 -10.585938 9.164062 -11.171875 9.34375 -11.640625 C 8.59375 -10.804688 7.753906 -9.796875 6.828125 -8.609375 C 5.898438 -7.421875 4.976562 -6.09375 4.0625 -4.625 C 3.15625 -3.15625 2.335938 -1.570312 1.609375 0.125 C 1.609375 0.289062 1.539062 0.375 1.40625 0.375 C 1.238281 0.375 1.046875 0.234375 0.828125 -0.046875 C 0.609375 -0.335938 0.5 -0.773438 0.5 -1.359375 C 0.5 -1.679688 0.640625 -2.175781 0.921875 -2.84375 C 1.210938 -3.519531 1.601562 -4.296875 2.09375 -5.171875 C 2.59375 -6.054688 3.15625 -6.976562 3.78125 -7.9375 C 4.40625 -8.894531 5.054688 -9.832031 5.734375 -10.75 C 6.410156 -11.664062 7.082031 -12.492188 7.75 -13.234375 C 8.414062 -13.972656 9.03125 -14.5625 9.59375 -15 C 10.15625 -15.445312 10.628906 -15.671875 11.015625 -15.671875 C 11.316406 -15.671875 11.625 -15.585938 11.9375 -15.421875 C 12.257812 -15.253906 12.519531 -15.050781 12.71875 -14.8125 C 12.925781 -14.582031 12.988281 -14.367188 12.90625 -14.171875 C 12.851562 -14.046875 12.742188 -13.757812 12.578125 -13.3125 C 12.421875 -12.875 12.222656 -12.332031 11.984375 -11.6875 C 11.753906 -11.050781 11.519531 -10.375 11.28125 -9.65625 C 11.050781 -8.945312 10.832031 -8.257812 10.625 -7.59375 C 10.414062 -6.9375 10.25 -6.363281 10.125 -5.875 C 11.1875 -7.1875 12.222656 -8.445312 13.234375 -9.65625 C 14.253906 -10.863281 15.210938 -11.945312 16.109375 -12.90625 C 17.015625 -13.863281 17.820312 -14.617188 18.53125 -15.171875 C 19.25 -15.722656 19.832031 -16 20.28125 -16 Z M 20.28125 -16 "/></g></g></g><g fill="#046758" fill-opacity="1"><g transform="translate(16.965999, 22.208874)"><g><path d="M 11.171875 -11.03125 C 11.398438 -11.03125 11.632812 -10.953125 11.875 -10.796875 C 12.125 -10.640625 12.332031 -10.457031 12.5 -10.25 C 12.664062 -10.039062 12.75 -9.847656 12.75 -9.671875 C 12.75 -9.609375 12.71875 -9.539062 12.65625 -9.46875 C 12.3125 -9.070312 11.945312 -8.5625 11.5625 -7.9375 C 11.175781 -7.3125 10.796875 -6.632812 10.421875 -5.90625 C 10.054688 -5.175781 9.722656 -4.445312 9.421875 -3.71875 C 9.117188 -2.988281 8.875 -2.3125 8.6875 -1.6875 C 8.507812 -1.0625 8.421875 -0.554688 8.421875 -0.171875 C 8.421875 -0.00390625 8.328125 0.078125 8.140625 0.078125 C 7.953125 0.078125 7.710938 -0.0078125 7.421875 -0.1875 C 7.140625 -0.363281 6.890625 -0.609375 6.671875 -0.921875 C 6.453125 -1.234375 6.34375 -1.582031 6.34375 -1.96875 C 6.34375 -2.238281 6.375 -2.53125 6.4375 -2.84375 C 6.5 -3.164062 6.578125 -3.492188 6.671875 -3.828125 C 5.804688 -2.703125 4.941406 -1.78125 4.078125 -1.0625 C 3.222656 -0.351562 2.441406 0 1.734375 0 C 1.210938 0 0.847656 -0.179688 0.640625 -0.546875 C 0.429688 -0.921875 0.328125 -1.328125 0.328125 -1.765625 C 0.328125 -2.367188 0.46875 -3.066406 0.75 -3.859375 C 1.039062 -4.660156 1.40625 -5.476562 1.84375 -6.3125 C 2.289062 -7.144531 2.757812 -7.914062 3.25 -8.625 C 3.738281 -9.34375 4.179688 -9.921875 4.578125 -10.359375 C 4.972656 -10.804688 5.257812 -11.03125 5.4375 -11.03125 C 5.675781 -11.03125 5.910156 -10.953125 6.140625 -10.796875 C 6.378906 -10.640625 6.582031 -10.457031 6.75 -10.25 C 6.914062 -10.050781 7 -9.867188 7 -9.703125 C 7 -9.597656 6.976562 -9.519531 6.9375 -9.46875 C 6.53125 -8.96875 6.117188 -8.398438 5.703125 -7.765625 C 5.296875 -7.140625 4.921875 -6.507812 4.578125 -5.875 C 4.242188 -5.25 3.976562 -4.679688 3.78125 -4.171875 C 3.582031 -3.660156 3.484375 -3.269531 3.484375 -3 C 3.484375 -2.75 3.566406 -2.625 3.734375 -2.625 C 3.910156 -2.625 4.25 -2.835938 4.75 -3.265625 C 5.25 -3.691406 5.8125 -4.265625 6.4375 -4.984375 C 7.070312 -5.710938 7.679688 -6.515625 8.265625 -7.390625 C 8.648438 -8.054688 9.03125 -8.664062 9.40625 -9.21875 C 9.789062 -9.78125 10.140625 -10.222656 10.453125 -10.546875 C 10.773438 -10.867188 11.015625 -11.03125 11.171875 -11.03125 Z M 11.171875 -11.03125 "/></g></g></g><g fill="#046758" fill-opacity="1"><g transform="translate(25.659845, 22.208874)"><g><path d="M 8.421875 -9.859375 C 8.171875 -9.859375 7.867188 -9.785156 7.515625 -9.640625 C 7.171875 -9.492188 6.835938 -9.300781 6.515625 -9.0625 C 6.191406 -8.832031 5.921875 -8.566406 5.703125 -8.265625 C 5.484375 -7.960938 5.375 -7.660156 5.375 -7.359375 C 5.375 -6.953125 5.523438 -6.601562 5.828125 -6.3125 C 6.140625 -6.019531 6.503906 -5.722656 6.921875 -5.421875 C 7.347656 -5.128906 7.71875 -4.796875 8.03125 -4.421875 C 8.34375 -4.054688 8.5 -3.609375 8.5 -3.078125 C 8.5 -2.484375 8.289062 -1.9375 7.875 -1.4375 C 7.46875 -0.945312 6.925781 -0.554688 6.25 -0.265625 C 5.582031 0.015625 4.84375 0.15625 4.03125 0.15625 C 3.257812 0.15625 2.570312 0.0234375 1.96875 -0.234375 C 1.375 -0.492188 0.90625 -0.847656 0.5625 -1.296875 C 0.21875 -1.742188 0.046875 -2.234375 0.046875 -2.765625 C 0.046875 -3.242188 0.144531 -3.644531 0.34375 -3.96875 C 0.550781 -4.300781 0.785156 -4.554688 1.046875 -4.734375 C 1.304688 -4.921875 1.519531 -5.015625 1.6875 -5.015625 C 1.875 -5.015625 1.96875 -4.929688 1.96875 -4.765625 C 1.976562 -4.210938 2.132812 -3.695312 2.4375 -3.21875 C 2.738281 -2.75 3.117188 -2.367188 3.578125 -2.078125 C 4.046875 -1.796875 4.523438 -1.65625 5.015625 -1.65625 C 5.378906 -1.65625 5.660156 -1.726562 5.859375 -1.875 C 6.054688 -2.03125 6.15625 -2.21875 6.15625 -2.4375 C 6.15625 -2.695312 6.035156 -2.941406 5.796875 -3.171875 C 5.554688 -3.410156 5.265625 -3.65625 4.921875 -3.90625 C 4.578125 -4.15625 4.234375 -4.425781 3.890625 -4.71875 C 3.546875 -5.019531 3.253906 -5.347656 3.015625 -5.703125 C 2.785156 -6.066406 2.671875 -6.484375 2.671875 -6.953125 C 2.671875 -7.492188 2.820312 -8.023438 3.125 -8.546875 C 3.425781 -9.066406 3.835938 -9.53125 4.359375 -9.9375 C 4.878906 -10.351562 5.46875 -10.679688 6.125 -10.921875 C 6.789062 -11.171875 7.476562 -11.296875 8.1875 -11.296875 C 9.132812 -11.296875 9.820312 -11.078125 10.25 -10.640625 C 10.675781 -10.203125 10.890625 -9.75 10.890625 -9.28125 C 10.890625 -8.882812 10.757812 -8.476562 10.5 -8.0625 C 10.25 -7.65625 9.925781 -7.316406 9.53125 -7.046875 C 9.144531 -6.785156 8.75 -6.65625 8.34375 -6.65625 C 8.101562 -6.65625 7.890625 -6.703125 7.703125 -6.796875 C 7.523438 -6.890625 7.4375 -6.992188 7.4375 -7.109375 C 7.4375 -7.140625 7.476562 -7.195312 7.5625 -7.28125 C 7.613281 -7.332031 7.734375 -7.488281 7.921875 -7.75 C 8.117188 -8.007812 8.304688 -8.300781 8.484375 -8.625 C 8.671875 -8.957031 8.765625 -9.257812 8.765625 -9.53125 C 8.765625 -9.75 8.648438 -9.859375 8.421875 -9.859375 Z M 8.421875 -9.859375 "/></g></g></g><g fill="#046758" fill-opacity="1"><g transform="translate(32.99289, 22.208874)"><g><path d="M 7.234375 -12.609375 C 6.929688 -12.609375 6.703125 -12.707031 6.546875 -12.90625 C 6.398438 -13.101562 6.328125 -13.3125 6.328125 -13.53125 C 6.328125 -13.832031 6.414062 -14.171875 6.59375 -14.546875 C 6.78125 -14.929688 7.046875 -15.253906 7.390625 -15.515625 C 7.734375 -15.785156 8.144531 -15.921875 8.625 -15.921875 C 8.988281 -15.921875 9.265625 -15.800781 9.453125 -15.5625 C 9.648438 -15.332031 9.75 -15.101562 9.75 -14.875 C 9.75 -14.550781 9.648438 -14.210938 9.453125 -13.859375 C 9.253906 -13.503906 8.960938 -13.207031 8.578125 -12.96875 C 8.203125 -12.726562 7.753906 -12.609375 7.234375 -12.609375 Z M 2.421875 -0.09375 C 2.421875 0.0703125 2.316406 0.15625 2.109375 0.15625 C 1.929688 0.15625 1.691406 0.0664062 1.390625 -0.109375 C 1.097656 -0.285156 0.835938 -0.53125 0.609375 -0.84375 C 0.390625 -1.15625 0.28125 -1.503906 0.28125 -1.890625 C 0.28125 -2.460938 0.421875 -3.140625 0.703125 -3.921875 C 0.992188 -4.703125 1.351562 -5.503906 1.78125 -6.328125 C 2.21875 -7.148438 2.664062 -7.914062 3.125 -8.625 C 3.59375 -9.34375 4.019531 -9.921875 4.40625 -10.359375 C 4.789062 -10.804688 5.070312 -11.03125 5.25 -11.03125 C 5.476562 -11.03125 5.71875 -10.945312 5.96875 -10.78125 C 6.21875 -10.613281 6.429688 -10.425781 6.609375 -10.21875 C 6.785156 -10.007812 6.875 -9.835938 6.875 -9.703125 C 6.875 -9.617188 6.84375 -9.539062 6.78125 -9.46875 C 6.363281 -8.945312 5.941406 -8.332031 5.515625 -7.625 C 5.097656 -6.925781 4.703125 -6.191406 4.328125 -5.421875 C 3.960938 -4.660156 3.632812 -3.921875 3.34375 -3.203125 C 3.0625 -2.492188 2.835938 -1.863281 2.671875 -1.3125 C 2.503906 -0.769531 2.421875 -0.363281 2.421875 -0.09375 Z M 2.421875 -0.09375 "/></g></g></g><g fill="#046758" fill-opacity="1"><g transform="translate(35.764737, 22.208874)"><g><path d="M 8.640625 -9.859375 C 8.328125 -9.859375 7.953125 -9.726562 7.515625 -9.46875 C 7.085938 -9.207031 6.644531 -8.851562 6.1875 -8.40625 C 5.738281 -7.957031 5.320312 -7.457031 4.9375 -6.90625 C 4.550781 -6.363281 4.234375 -5.800781 3.984375 -5.21875 C 3.742188 -4.644531 3.625 -4.085938 3.625 -3.546875 C 3.625 -3.097656 3.738281 -2.742188 3.96875 -2.484375 C 4.207031 -2.234375 4.539062 -2.109375 4.96875 -2.109375 C 5.5 -2.109375 6.023438 -2.289062 6.546875 -2.65625 C 7.066406 -3.03125 7.515625 -3.472656 7.890625 -3.984375 C 7.941406 -4.097656 8.007812 -4.15625 8.09375 -4.15625 C 8.175781 -4.15625 8.253906 -4.09375 8.328125 -3.96875 C 8.398438 -3.84375 8.4375 -3.671875 8.4375 -3.453125 C 8.4375 -3.117188 8.300781 -2.75 8.03125 -2.34375 C 7.769531 -1.9375 7.410156 -1.546875 6.953125 -1.171875 C 6.503906 -0.804688 5.988281 -0.503906 5.40625 -0.265625 C 4.820312 -0.0351562 4.222656 0.078125 3.609375 0.078125 C 2.660156 0.078125 1.914062 -0.175781 1.375 -0.6875 C 0.84375 -1.207031 0.578125 -1.925781 0.578125 -2.84375 C 0.578125 -3.53125 0.722656 -4.257812 1.015625 -5.03125 C 1.316406 -5.8125 1.726562 -6.570312 2.25 -7.3125 C 2.769531 -8.050781 3.351562 -8.71875 4 -9.3125 C 4.65625 -9.90625 5.347656 -10.382812 6.078125 -10.75 C 6.816406 -11.113281 7.546875 -11.296875 8.265625 -11.296875 C 9.085938 -11.296875 9.710938 -11.078125 10.140625 -10.640625 C 10.566406 -10.203125 10.78125 -9.738281 10.78125 -9.25 C 10.78125 -8.863281 10.648438 -8.46875 10.390625 -8.0625 C 10.128906 -7.65625 9.804688 -7.316406 9.421875 -7.046875 C 9.035156 -6.785156 8.640625 -6.65625 8.234375 -6.65625 C 8.015625 -6.65625 7.816406 -6.703125 7.640625 -6.796875 C 7.472656 -6.890625 7.390625 -6.992188 7.390625 -7.109375 C 7.390625 -7.160156 7.421875 -7.21875 7.484375 -7.28125 C 7.554688 -7.351562 7.703125 -7.519531 7.921875 -7.78125 C 8.148438 -8.039062 8.375 -8.332031 8.59375 -8.65625 C 8.8125 -8.988281 8.921875 -9.28125 8.921875 -9.53125 C 8.921875 -9.75 8.828125 -9.859375 8.640625 -9.859375 Z M 8.640625 -9.859375 "/></g></g></g><g fill="#046758" fill-opacity="1"><g transform="translate(42.971785, 22.208874)"><g/></g></g><g fill="#046758" fill-opacity="1"><g transform="translate(46.22243, 22.208874)"><g><path d="M 11.4375 -16 C 12.550781 -16 13.367188 -15.707031 13.890625 -15.125 C 14.421875 -14.550781 14.6875 -13.882812 14.6875 -13.125 C 14.6875 -12.4375 14.5 -11.785156 14.125 -11.171875 C 13.757812 -10.554688 13.304688 -10.0625 12.765625 -9.6875 C 12.234375 -9.3125 11.707031 -9.125 11.1875 -9.125 C 10.875 -9.125 10.625 -9.191406 10.4375 -9.328125 C 10.25 -9.472656 10.15625 -9.613281 10.15625 -9.75 C 10.15625 -9.875 10.210938 -9.96875 10.328125 -10.03125 C 10.867188 -10.613281 11.347656 -11.21875 11.765625 -11.84375 C 12.191406 -12.46875 12.40625 -13.015625 12.40625 -13.484375 C 12.40625 -13.941406 12.148438 -14.171875 11.640625 -14.171875 C 11.117188 -14.171875 10.519531 -13.960938 9.84375 -13.546875 C 9.175781 -13.128906 8.492188 -12.570312 7.796875 -11.875 C 7.097656 -11.1875 6.457031 -10.410156 5.875 -9.546875 C 5.300781 -8.691406 4.832031 -7.816406 4.46875 -6.921875 C 4.113281 -6.035156 3.9375 -5.195312 3.9375 -4.40625 C 3.9375 -3.613281 4.128906 -2.988281 4.515625 -2.53125 C 4.898438 -2.082031 5.4375 -1.859375 6.125 -1.859375 C 6.707031 -1.859375 7.296875 -2.019531 7.890625 -2.34375 C 8.492188 -2.675781 9.0625 -3.101562 9.59375 -3.625 C 10.125 -4.144531 10.570312 -4.691406 10.9375 -5.265625 C 10.96875 -5.347656 11.023438 -5.390625 11.109375 -5.390625 C 11.210938 -5.390625 11.3125 -5.328125 11.40625 -5.203125 C 11.5 -5.078125 11.546875 -4.863281 11.546875 -4.5625 C 11.546875 -4.019531 11.375 -3.457031 11.03125 -2.875 C 10.695312 -2.300781 10.238281 -1.757812 9.65625 -1.25 C 9.082031 -0.75 8.414062 -0.335938 7.65625 -0.015625 C 6.90625 0.296875 6.109375 0.453125 5.265625 0.453125 C 3.953125 0.453125 2.882812 0.0507812 2.0625 -0.75 C 1.238281 -1.5625 0.828125 -2.664062 0.828125 -4.0625 C 0.828125 -5.050781 1.035156 -6.09375 1.453125 -7.1875 C 1.878906 -8.28125 2.453125 -9.347656 3.171875 -10.390625 C 3.898438 -11.429688 4.71875 -12.375 5.625 -13.21875 C 6.539062 -14.0625 7.5 -14.734375 8.5 -15.234375 C 9.5 -15.742188 10.476562 -16 11.4375 -16 Z M 11.4375 -16 "/></g></g></g><g fill="#046758" fill-opacity="1"><g transform="translate(56.327481, 22.208874)"><g><path d="M 5.140625 -4.390625 C 4.648438 -4.390625 4.210938 -4.472656 3.828125 -4.640625 C 3.691406 -4.179688 3.625 -3.769531 3.625 -3.40625 C 3.625 -2.9375 3.738281 -2.59375 3.96875 -2.375 C 4.207031 -2.164062 4.539062 -2.0625 4.96875 -2.0625 C 5.5 -2.0625 6.019531 -2.222656 6.53125 -2.546875 C 7.050781 -2.867188 7.488281 -3.253906 7.84375 -3.703125 C 7.925781 -3.835938 8.007812 -3.90625 8.09375 -3.90625 C 8.207031 -3.90625 8.3125 -3.835938 8.40625 -3.703125 C 8.5 -3.566406 8.535156 -3.398438 8.515625 -3.203125 C 8.515625 -2.910156 8.375 -2.578125 8.09375 -2.203125 C 7.820312 -1.828125 7.453125 -1.46875 6.984375 -1.125 C 6.523438 -0.78125 6 -0.492188 5.40625 -0.265625 C 4.820312 -0.0351562 4.222656 0.078125 3.609375 0.078125 C 2.660156 0.078125 1.914062 -0.175781 1.375 -0.6875 C 0.84375 -1.207031 0.578125 -1.925781 0.578125 -2.84375 C 0.578125 -3.53125 0.734375 -4.257812 1.046875 -5.03125 C 1.359375 -5.8125 1.769531 -6.570312 2.28125 -7.3125 C 2.789062 -8.050781 3.363281 -8.71875 4 -9.3125 C 4.644531 -9.90625 5.296875 -10.382812 5.953125 -10.75 C 6.617188 -11.113281 7.253906 -11.296875 7.859375 -11.296875 C 8.285156 -11.296875 8.691406 -11.207031 9.078125 -11.03125 C 9.472656 -10.851562 9.800781 -10.59375 10.0625 -10.25 C 10.320312 -9.90625 10.453125 -9.472656 10.453125 -8.953125 C 10.453125 -8.410156 10.296875 -7.867188 9.984375 -7.328125 C 9.679688 -6.796875 9.269531 -6.304688 8.75 -5.859375 C 8.226562 -5.410156 7.648438 -5.050781 7.015625 -4.78125 C 6.390625 -4.519531 5.765625 -4.390625 5.140625 -4.390625 Z M 8.234375 -9.875 C 7.929688 -9.875 7.523438 -9.664062 7.015625 -9.25 C 6.503906 -8.832031 5.984375 -8.285156 5.453125 -7.609375 C 4.921875 -6.941406 4.488281 -6.238281 4.15625 -5.5 C 4.207031 -5.476562 4.257812 -5.46875 4.3125 -5.46875 C 4.363281 -5.46875 4.414062 -5.46875 4.46875 -5.46875 C 4.9375 -5.46875 5.410156 -5.625 5.890625 -5.9375 C 6.367188 -6.257812 6.804688 -6.648438 7.203125 -7.109375 C 7.609375 -7.578125 7.929688 -8.035156 8.171875 -8.484375 C 8.421875 -8.929688 8.546875 -9.28125 8.546875 -9.53125 C 8.546875 -9.757812 8.441406 -9.875 8.234375 -9.875 Z M 8.234375 -9.875 "/></g></g></g><g fill="#046758" fill-opacity="1"><g transform="translate(63.660529, 22.208874)"><g><path d="M 10.78125 -11.03125 C 11.238281 -11.03125 11.628906 -10.925781 11.953125 -10.71875 C 12.285156 -10.507812 12.539062 -10.265625 12.71875 -9.984375 C 12.90625 -9.710938 13 -9.46875 13 -9.25 C 13 -9.0625 12.941406 -8.9375 12.828125 -8.875 C 12.421875 -8.363281 12.003906 -7.726562 11.578125 -6.96875 C 11.148438 -6.21875 10.742188 -5.425781 10.359375 -4.59375 C 9.984375 -3.769531 9.664062 -2.960938 9.40625 -2.171875 C 9.144531 -1.378906 8.984375 -0.6875 8.921875 -0.09375 C 8.921875 0.0703125 8.820312 0.15625 8.625 0.15625 C 8.4375 0.15625 8.191406 0.0664062 7.890625 -0.109375 C 7.597656 -0.285156 7.335938 -0.53125 7.109375 -0.84375 C 6.890625 -1.15625 6.78125 -1.503906 6.78125 -1.890625 C 6.78125 -2.472656 6.898438 -3.113281 7.140625 -3.8125 C 7.390625 -4.507812 7.703125 -5.210938 8.078125 -5.921875 C 8.453125 -6.628906 8.84375 -7.289062 9.25 -7.90625 C 9.664062 -8.519531 10.046875 -9.019531 10.390625 -9.40625 C 9.910156 -9.050781 9.359375 -8.570312 8.734375 -7.96875 C 8.117188 -7.363281 7.46875 -6.691406 6.78125 -5.953125 C 6.101562 -5.222656 5.457031 -4.5 4.84375 -3.78125 C 4.238281 -3.070312 3.710938 -2.425781 3.265625 -1.84375 C 2.816406 -1.269531 2.519531 -0.832031 2.375 -0.53125 C 2.25 -0.175781 2.003906 0 1.640625 0 C 1.316406 0 1.007812 -0.164062 0.71875 -0.5 C 0.425781 -0.84375 0.28125 -1.359375 0.28125 -2.046875 C 0.28125 -2.429688 0.378906 -2.914062 0.578125 -3.5 C 0.773438 -4.09375 1.035156 -4.722656 1.359375 -5.390625 C 1.679688 -6.066406 2.035156 -6.734375 2.421875 -7.390625 C 2.804688 -8.054688 3.179688 -8.664062 3.546875 -9.21875 C 3.921875 -9.78125 4.257812 -10.222656 4.5625 -10.546875 C 4.863281 -10.867188 5.09375 -11.03125 5.25 -11.03125 C 5.476562 -11.03125 5.707031 -10.953125 5.9375 -10.796875 C 6.175781 -10.640625 6.367188 -10.457031 6.515625 -10.25 C 6.671875 -10.050781 6.75 -9.867188 6.75 -9.703125 C 6.75 -9.597656 6.71875 -9.519531 6.65625 -9.46875 C 6.144531 -8.851562 5.585938 -8.046875 4.984375 -7.046875 C 4.378906 -6.046875 3.851562 -5.023438 3.40625 -3.984375 C 3.851562 -4.554688 4.359375 -5.164062 4.921875 -5.8125 C 5.484375 -6.457031 6.054688 -7.085938 6.640625 -7.703125 C 7.222656 -8.316406 7.785156 -8.875 8.328125 -9.375 C 8.878906 -9.875 9.367188 -10.273438 9.796875 -10.578125 C 10.222656 -10.878906 10.550781 -11.03125 10.78125 -11.03125 Z M 10.78125 -11.03125 "/></g></g></g><g fill="#046758" fill-opacity="1"><g transform="translate(72.681969, 22.208874)"><g><path d="M 9.421875 -15.75 C 9.671875 -15.75 9.914062 -15.664062 10.15625 -15.5 C 10.40625 -15.34375 10.609375 -15.164062 10.765625 -14.96875 C 10.929688 -14.769531 11.015625 -14.585938 11.015625 -14.421875 C 11.015625 -14.316406 10.976562 -14.238281 10.90625 -14.1875 C 10.507812 -13.769531 10.085938 -13.269531 9.640625 -12.6875 C 9.191406 -12.113281 8.742188 -11.488281 8.296875 -10.8125 L 10.4375 -10.8125 C 10.625 -10.8125 10.71875 -10.726562 10.71875 -10.5625 C 10.71875 -10.394531 10.609375 -10.179688 10.390625 -9.921875 C 10.179688 -9.660156 9.960938 -9.488281 9.734375 -9.40625 C 9.578125 -9.351562 9.265625 -9.304688 8.796875 -9.265625 C 8.328125 -9.234375 7.816406 -9.203125 7.265625 -9.171875 C 6.640625 -8.160156 6.050781 -7.117188 5.5 -6.046875 C 4.957031 -4.972656 4.492188 -3.925781 4.109375 -2.90625 C 3.722656 -1.894531 3.445312 -0.957031 3.28125 -0.09375 C 3.28125 0.0703125 3.1875 0.15625 3 0.15625 C 2.8125 0.15625 2.570312 0.0664062 2.28125 -0.109375 C 2 -0.285156 1.75 -0.53125 1.53125 -0.84375 C 1.3125 -1.15625 1.203125 -1.503906 1.203125 -1.890625 C 1.203125 -2.359375 1.335938 -2.972656 1.609375 -3.734375 C 1.878906 -4.503906 2.238281 -5.347656 2.6875 -6.265625 C 3.132812 -7.191406 3.625 -8.117188 4.15625 -9.046875 L 3.875 -9.046875 C 3.507812 -9.046875 3.253906 -9.128906 3.109375 -9.296875 C 2.960938 -9.460938 2.890625 -9.65625 2.890625 -9.875 C 2.890625 -10.113281 2.9375 -10.328125 3.03125 -10.515625 C 3.125 -10.710938 3.207031 -10.8125 3.28125 -10.8125 L 5.25 -10.8125 C 5.8125 -11.71875 6.367188 -12.546875 6.921875 -13.296875 C 7.484375 -14.046875 7.984375 -14.640625 8.421875 -15.078125 C 8.859375 -15.523438 9.191406 -15.75 9.421875 -15.75 Z M 9.421875 -15.75 "/></g></g></g><g fill="#046758" fill-opacity="1"><g transform="translate(78.049415, 22.208874)"><g><path d="M 5.140625 -4.390625 C 4.648438 -4.390625 4.210938 -4.472656 3.828125 -4.640625 C 3.691406 -4.179688 3.625 -3.769531 3.625 -3.40625 C 3.625 -2.9375 3.738281 -2.59375 3.96875 -2.375 C 4.207031 -2.164062 4.539062 -2.0625 4.96875 -2.0625 C 5.5 -2.0625 6.019531 -2.222656 6.53125 -2.546875 C 7.050781 -2.867188 7.488281 -3.253906 7.84375 -3.703125 C 7.925781 -3.835938 8.007812 -3.90625 8.09375 -3.90625 C 8.207031 -3.90625 8.3125 -3.835938 8.40625 -3.703125 C 8.5 -3.566406 8.535156 -3.398438 8.515625 -3.203125 C 8.515625 -2.910156 8.375 -2.578125 8.09375 -2.203125 C 7.820312 -1.828125 7.453125 -1.46875 6.984375 -1.125 C 6.523438 -0.78125 6 -0.492188 5.40625 -0.265625 C 4.820312 -0.0351562 4.222656 0.078125 3.609375 0.078125 C 2.660156 0.078125 1.914062 -0.175781 1.375 -0.6875 C 0.84375 -1.207031 0.578125 -1.925781 0.578125 -2.84375 C 0.578125 -3.53125 0.734375 -4.257812 1.046875 -5.03125 C 1.359375 -5.8125 1.769531 -6.570312 2.28125 -7.3125 C 2.789062 -8.050781 3.363281 -8.71875 4 -9.3125 C 4.644531 -9.90625 5.296875 -10.382812 5.953125 -10.75 C 6.617188 -11.113281 7.253906 -11.296875 7.859375 -11.296875 C 8.285156 -11.296875 8.691406 -11.207031 9.078125 -11.03125 C 9.472656 -10.851562 9.800781 -10.59375 10.0625 -10.25 C 10.320312 -9.90625 10.453125 -9.472656 10.453125 -8.953125 C 10.453125 -8.410156 10.296875 -7.867188 9.984375 -7.328125 C 9.679688 -6.796875 9.269531 -6.304688 8.75 -5.859375 C 8.226562 -5.410156 7.648438 -5.050781 7.015625 -4.78125 C 6.390625 -4.519531 5.765625 -4.390625 5.140625 -4.390625 Z M 8.234375 -9.875 C 7.929688 -9.875 7.523438 -9.664062 7.015625 -9.25 C 6.503906 -8.832031 5.984375 -8.285156 5.453125 -7.609375 C 4.921875 -6.941406 4.488281 -6.238281 4.15625 -5.5 C 4.207031 -5.476562 4.257812 -5.46875 4.3125 -5.46875 C 4.363281 -5.46875 4.414062 -5.46875 4.46875 -5.46875 C 4.9375 -5.46875 5.410156 -5.625 5.890625 -5.9375 C 6.367188 -6.257812 6.804688 -6.648438 7.203125 -7.109375 C 7.609375 -7.578125 7.929688 -8.035156 8.171875 -8.484375 C 8.421875 -8.929688 8.546875 -9.28125 8.546875 -9.53125 C 8.546875 -9.757812 8.441406 -9.875 8.234375 -9.875 Z M 8.234375 -9.875 "/></g></g></g><g fill="#046758" fill-opacity="1"><g transform="translate(85.382463, 22.208874)"><g><path d="M 9.859375 -11.03125 C 10.109375 -11.03125 10.351562 -10.945312 10.59375 -10.78125 C 10.84375 -10.613281 11.050781 -10.410156 11.21875 -10.171875 C 11.382812 -9.941406 11.46875 -9.734375 11.46875 -9.546875 C 11.46875 -9.410156 11.414062 -9.300781 11.3125 -9.21875 C 10.894531 -8.695312 10.457031 -8.078125 10 -7.359375 C 9.550781 -6.640625 9.203125 -5.9375 8.953125 -5.25 C 8.929688 -5.007812 8.828125 -4.890625 8.640625 -4.890625 C 8.472656 -4.890625 8.273438 -5.035156 8.046875 -5.328125 C 7.828125 -5.617188 7.71875 -6.023438 7.71875 -6.546875 C 7.71875 -6.984375 7.828125 -7.472656 8.046875 -8.015625 C 7.503906 -7.441406 6.953125 -6.796875 6.390625 -6.078125 C 5.828125 -5.367188 5.285156 -4.648438 4.765625 -3.921875 C 4.242188 -3.203125 3.789062 -2.53125 3.40625 -1.90625 C 3.03125 -1.289062 2.769531 -0.78125 2.625 -0.375 C 2.519531 -0.09375 2.304688 0.046875 1.984375 0.046875 C 1.753906 0.046875 1.503906 -0.0351562 1.234375 -0.203125 C 0.960938 -0.367188 0.734375 -0.597656 0.546875 -0.890625 C 0.367188 -1.179688 0.28125 -1.515625 0.28125 -1.890625 C 0.28125 -2.273438 0.378906 -2.757812 0.578125 -3.34375 C 0.773438 -3.9375 1.035156 -4.578125 1.359375 -5.265625 C 1.679688 -5.953125 2.035156 -6.632812 2.421875 -7.3125 C 2.804688 -8 3.179688 -8.625 3.546875 -9.1875 C 3.921875 -9.75 4.257812 -10.195312 4.5625 -10.53125 C 4.863281 -10.863281 5.09375 -11.03125 5.25 -11.03125 C 5.476562 -11.03125 5.707031 -10.953125 5.9375 -10.796875 C 6.175781 -10.640625 6.367188 -10.457031 6.515625 -10.25 C 6.671875 -10.050781 6.75 -9.867188 6.75 -9.703125 C 6.75 -9.597656 6.71875 -9.519531 6.65625 -9.46875 C 6.195312 -8.914062 5.710938 -8.191406 5.203125 -7.296875 C 4.691406 -6.398438 4.234375 -5.472656 3.828125 -4.515625 C 4.335938 -5.253906 4.878906 -6 5.453125 -6.75 C 6.035156 -7.507812 6.613281 -8.21875 7.1875 -8.875 C 7.757812 -9.53125 8.28125 -10.050781 8.75 -10.4375 C 9.21875 -10.832031 9.585938 -11.03125 9.859375 -11.03125 Z M 9.859375 -11.03125 "/></g></g></g></g></g></svg>
